<?xml version="1.0" encoding="UTF-8"?>
<svg id="_圖層_1" xmlns="http://www.w3.org/2000/svg" version="1.1" xmlns:xlink="http://www.w3.org/1999/xlink" viewBox="0 0 1351.46 298.32">
  <!-- Generator: Adobe Illustrator 29.8.2, SVG Export Plug-In . SVG Version: 2.1.1 Build 3)  -->
  <defs>
    <style>
      .st0 {
        fill: none;
      }

      .st1 {
        fill: #1777ba;
      }

      .st2 {
        fill: url(#_未命名漸層_166);
      }

      .st3 {
        fill: #0a1f8f;
      }

      .st4 {
        clip-path: url(#clippath);
      }
    </style>
    <clipPath id="clippath">
      <path class="st1" d="M376.22,115.85s7.17,8.65,13.41,12.44l.26-1.19c0,.43.02.85.06,1.26l2.43-.73s0-26.69,17.89-44.22c0,0-12.17,16.41-13.92,33.14,0,0,13.44-1.6,16.86-12.57,3.18-10.23.59-24.39,9.06-31.68,0,0-44.64,9.41-30.22,43.15,0,0-1.76,5.21-2.1,10-3-2.31-30.16-24-34.86-57.07,0,0,8.56,27.6,26.1,43.55,0,0,10.84-17.75-.15-29.65-10.99-11.92-27.21-21.06-28.42-36.8,0,0-26.81,58.58,23.6,70.4Z"/>
    </clipPath>
    <linearGradient id="_未命名漸層_166" data-name="未命名漸層 166" x1="488.22" y1="285.35" x2="653.35" y2="214.14" gradientUnits="userSpaceOnUse">
      <stop offset=".07" stop-color="#219fc4" stop-opacity="0"/>
      <stop offset=".83" stop-color="#91bbcc"/>
    </linearGradient>
  </defs>
  <path class="st1" d="M376.22,115.85s7.17,8.65,13.41,12.44l.26-1.19c0,.43.02.85.06,1.26l2.43-.73s0-26.69,17.89-44.22c0,0-12.17,16.41-13.92,33.14,0,0,13.44-1.6,16.86-12.57,3.18-10.23.59-24.39,9.06-31.68,0,0-44.64,9.41-30.22,43.15,0,0-1.76,5.21-2.1,10-3-2.31-30.16-24-34.86-57.07,0,0,8.56,27.6,26.1,43.55,0,0,10.84-17.75-.15-29.65-10.99-11.92-27.21-21.06-28.42-36.8,0,0-26.81,58.58,23.6,70.4"/>
  <g>
    <path class="st1" d="M376.22,115.85s7.17,8.65,13.41,12.44l.26-1.19c0,.43.02.85.06,1.26l2.43-.73s0-26.69,17.89-44.22c0,0-12.17,16.41-13.92,33.14,0,0,13.44-1.6,16.86-12.57,3.18-10.23.59-24.39,9.06-31.68,0,0-44.64,9.41-30.22,43.15,0,0-1.76,5.21-2.1,10-3-2.31-30.16-24-34.86-57.07,0,0,8.56,27.6,26.1,43.55,0,0,10.84-17.75-.15-29.65-10.99-11.92-27.21-21.06-28.42-36.8,0,0-26.81,58.58,23.6,70.4Z"/>
    <g class="st4">
      <rect class="st1" x="336.58" y="45.45" width="85.69" height="82.92"/>
    </g>
  </g>
  <path class="st1" d="M67.56,128.92l.67-1.46c.37-.96,1.07-1.63,2.1-2.02,1.03-.39,1.98-.94,2.84-1.68l16.77-9.49c1.61-.83,3.65-1.69,6.13-2.56l3.62-2.2c.94-.75,2.4-1.38,4.36-1.86l3.83-1.86c.33-.08.69.16,1.09.7.4.55.67.81.84.77,3.21-3.48,5.34-5.36,6.41-5.62l.25-.06h3.13c.49-.12.94-.57,1.36-1.37l.37-.61c2,.38,3.08.53,3.25.49,1.23-.31,2.55-.89,3.99-1.77,1.43-.87,2.84-1.48,4.24-1.83l3.86-.69,8.33-2.58c.49-.12,1.08,0,1.77.34l2.33-1.1c2.37-.58,4.8-.84,7.29-.76,2.49.08,5.41-.13,8.76-.61,3.36-.49,6,.03,7.93,1.54l2.27.22,1.47-.37c2.13-.52,3.6.02,4.43,1.63.73.86,1.96,1.59,3.67,2.22l2.23,2.18c-.04.53,0,1.04.12,1.53s1.16.84,3.12,1.05l.55.12c.39,1.21,1.51,2.43,3.38,3.65,1.87,1.23,3.34,4.01,4.4,8.33l.73,2.94,2.07,6.26c1.07,4.34,1.08,9.88.03,16.65-1.06,6.77-2.71,11.73-4.96,14.89-.11,2.37-.61,3.66-1.5,3.89-2.21,3.33-3.72,5.09-4.54,5.29-.17.04-.43.02-.79-.06-.57,2.23-1.93,4.38-4.06,6.47-2.13,2.09-3.52,3.35-4.21,3.77-.67.43-2.39,1.58-5.12,3.48h-3.13c-.94,1.45-1.64,2.27-2.12,2.47l-5.83,4.31c-5.11,2.83-8.52,4.45-10.23,4.88l-3.31-.22c-.49.12-1.08.92-1.75,2.39l-2.21,1.07c-.61-.37-2.3-.35-5.06.08-.96,1.02-1.81,1.61-2.54,1.8l-5.21,2.07c-.65.16-1.22-.35-1.68-1.53l-1.01.64-.07,1.84c-.29.25-.67.43-1.17.54l-6.67.87-2.88,1.49-5.27.27-2.39.85-2.33-.47-1.9.73h-2.08l-2.21,1.06-.55-.12c-.17.73-.45,1.37-.83,1.9s-.83,1.55-1.33,3.06c-1.49,2.02-2.21,4.19-2.16,6.52.06,2.33-1.07,3.91-3.38,4.74-.09.37-.23.83-.44,1.41.21.13.62.76,1.25,1.9l.12.49c.49,1.96-.61,4.36-3.29,7.19.24,3.06.17,5.34-.2,6.81-.37,1.47-.57,2.68-.6,3.59-.03.92-.55,1.81-1.55,2.66l-.31.85.88,3.55c.04.17-.08.73-.36,1.71-.28.98-.66,2.4-1.16,4.26l-.44,1.41.02,4.29c-1.36,1.55-1.78,3.35-1.27,5.38l1.98,6.93c.31,1.23-.18,2.69-1.46,4.39-1.27,1.7-2.68,2.75-4.24,3.14-4.01.99-7.34-.73-10.01-5.2l-.98-.8c-2.06-.96-3.43-2.83-4.13-5.61-.79-3.19-.3-8.38,1.47-15.59l4.47-16.59c.04-.18.92-1.18,2.64-3l1.47.16c.29-.25.37-.61.25-1.1-.04-.16-.78-1.24-2.23-3.22l-.12-.49c-.16-.65.02-1.13.55-1.44l.7-1.35-.85-2.4c.92-2.57,1.35-4.19,1.27-4.87l.52-3.12c.35-2.08.76-3.23,1.23-3.42-.81-3.27-.43-5.92,1.15-7.96l.47-2.33c.13-.55.58-.97,1.38-1.26.79-.29,1.18-.5,1.14-.67-.08-.33-.31-.7-.67-1.14-.37-.43-.59-.81-.67-1.14-.2-.81,0-1.99.62-3.53.61-1.53,1.13-2.36,1.53-2.46l2.11.64-.18-.73c-1-.53-1.56-1.05-1.68-1.53-.16-.65,0-1.62.45-2.91.47-1.29.71-2.2.75-2.72l.67-1.46c.16-.04.29-1.29.38-3.73s.75-3.78,2-4.01l-.31-1.23c-.2-.81.25-3.01,1.36-6.58l3.64-13.13c-.04-.86.26-2.44.9-4.78l-.97-2.88c-.33-1.31-.08-3.53.75-6.69.82-3.15,1.72-4.85,2.7-5.1.49-.12.86-.13,1.1,0,.25.12.45.15.61.11l1.9-.73,4.8,2.58c1.29.63,2.29,2.08,3.02,4.33l.67.61c2.97,3.26,4.65,5.65,5.04,7.21.49,1.96.67,3.5.55,4.61-.11,1.11-1.06,2.62-2.84,4.54-1.46,2.88-2.21,5.26-2.27,7.13-.06,1.88-.49,3.74-1.29,5.58-.8,1.85-1.28,4.39-1.43,7.64s-1.15,5.88-2.99,7.9c.3,2.27.44,4.23.42,5.88l.06.25c.12.49.5.65,1.16.49l3.92-1.49c.49-.12,1.11-.15,1.87-.07.75.07,1.46.03,2.12-.13.65-.16,1.39-.69,2.21-1.58l.73-.18c.33-.08,1.45.08,3.37.47l.43-.37c.29-.94.67-1.46,1.17-1.59l4.9-.69,2.27-.82c.96-1.02,2.63-1.87,5.03-2.54,2.39-.67,4.01-1.34,4.84-1.98.84-.64,1.61-1.1,2.33-1.36.71-.27,1.59-.83,2.63-1.69,1.04-.86,1.98-1.41,2.79-1.6,1.88-.47,4.28-1.97,7.21-4.51,1.23.04,1.92.05,2.08,0,1.55-.39,2.65-1.35,3.32-2.9.65-1.55,1.57-2.55,2.76-3.03l6.66-5.17c.59-.41,1.69-2.11,3.29-5.11l1.84-2.02.95-2.44c-.04-.16.61-.84,1.96-2.05-.37-.08-.67-.27-.92-.55l1.94-3.73c-.37-.77-.57-1.25-.61-1.41l-.12-.49c.51-1.43,1.13-2.53,1.84-3.33.71-.78,1.06-1.26,1.01-1.43l-1.59-1.17c.86-1.43,1.25-2.31,1.17-2.63l-1.38-3.43-1.06-6.37c-.79-3.19-1.5-5.2-2.15-6.04s-1.17-1.73-1.57-2.66c-2.31-2.63-5.09-4.59-8.34-5.87-.29-.1-.48-.36-.58-.76l-.54-1.17-.12-.49-3.8,1.46c-.17.04-.53-.3-1.1-1.03-.57-.72-1.27-.99-2.08-.78l-1.53,1.16-.25.06c-.57.14-2.2-.28-4.87-1.27-.53-.04-1.57.13-3.13.51l-1.9-.32c-.57-.2-1.02-.27-1.35-.19l-.73.19-2.7,1.19-6.37,1.06-3.98.21c-1.15,1.33-1.92,2.04-2.34,2.14-.33.08-1.17.03-2.51-.16l-.25.06-3.55,1.41c-1.11.45-2,.84-2.7,1.19l-.73.18c-2.69.67-4.84.94-6.43.81l-.73.19c-.9.22-1.56.71-1.98,1.46-.43.75-.87,1.19-1.37,1.32-.33.08-.87-.35-1.62-1.29-.86,1.08-1.5,1.8-1.93,2.17l-2.43-.31c-.17.73-2.48,2.05-6.96,3.94l-5.58,2.68h-1.04c-1.72,1.12-3.16,1.95-4.33,2.5-1.17.54-2.17,1.17-2.99,1.84-.83.68-1.75,1.24-2.77,1.66s-2.47,1.22-4.36,2.38h-2.08c-1.33,1.28-3.32,2.9-5.95,4.85-2.63,1.95-4.24,3.4-4.79,4.31-.55.92-1.16,1.46-1.81,1.62-.17.04-.67.08-1.53.12l-.25.06c-.73.18-1.73,1.32-3,3.41-1.26,2.09-2.42,3.65-3.45,4.69-1.05,1.04-1.84,2.47-2.39,4.3s-2.41,3.52-5.57,5.09c-.13.21-.23.49-.31.86l.49,1.96c-1.13,1.06-1.96,2.78-2.49,5.18l-.44,1.41.33,2.4c.6,2.45.6,3.84,0,4.17-.61.33-1.21.84-1.76,1.54-.56.7-1.17,1.14-1.82,1.3-1.39.35-3-.55-4.83-2.7-1.83-2.15-2.81-3.46-2.93-3.96-1.2-4.82-.49-8.77,2.14-11.85l7.43-8.87c2.47-2.96,4.78-4.7,6.9-5.23.57-.49,1.08-1.44,1.5-2.84.44-1.41,1.88-2.72,4.36-3.94l2.14.25c.16-.04.33-.43.49-1.16.16-.73.54-1.39,1.14-1.97.59-.57,1.06-1.26,1.39-2.04l2.67-2.87c.16-.04.31-.16.43-.37l1.96.04c.16-.04.39-.18.67-.43s.84-.47,1.65-.67c.33-.08.47-.55.44-1.41.23-.49.61-.85,1.17-1.07"/>
  <path class="st1" d="M196.02,218.07l-.22-.86c-.29-1.14-.43-2.06-.43-2.76-.81-1.19-1.36-2.31-1.61-3.38-.04-.16.09-1.41.38-3.73l.16-4.08c.21-1.61.35-2.46.41-2.57-.81-1.19-1.24-1.86-1.29-2.03-.47-1.88-.32-3.56.44-5.05.76-1.48,1.23-3.42,1.43-5.82l.59-8.09,1.61-10.81c.02-.27.25-1.01.67-2.25.44-1.23.77-2.3,1.03-3.18.26-.89.61-2.17,1.06-3.84l1.17-.55c.25-.41.33-.77.25-1.1-.04-.16-.37-.77-.98-1.84l2.52-8.18,1.27-5.91c.48-1.59,1.15-2.71,2.03-3.37.88-3.42,1.86-5.62,2.92-6.58.11-1.67.58-3.57,1.46-5.69l2.27-.82c.13-1.25.32-2.21.58-2.88l-.37-2.51c.12.49.29.3.5-.58s.47-2.47.76-4.81l2.37-4.62.55-1.96c.27-.67.64-1.94,1.14-3.79,1.11-.79,1.9-1.95,2.4-3.45l2.06-2.72c-.39-.86.1-3.1,1.46-6.73,1.25-.92,2.33-1.96,3.26-3.15l1.59-.92c-.71-2.86-.18-5.08,1.6-6.64l1.23-1.35c1.15-.98,1.8-1.48,1.96-1.52l.79-.46c.9-.56,2-1.02,3.31-1.34,3.02-.75,6.04-.31,9.05,1.34s4.87,3.89,5.57,6.75c.29,1.15-.04,2.48-.96,4.01l-.25,1.1c-.03,4.78-.29,7.23-.78,7.34-.33.08-.71.44-1.17,1.07.5,2.74.71,4.3.63,4.66-1.41.61-1.69,2.63-.84,6.06-.04.53-.43,1.51-1.16,2.95-.73,1.45-1.12,3.27-1.18,5.49s-.41,3.41-1.06,3.58l-1.35.34.82,1.75c.29,1.15,0,2.41-.82,3.78s-1.22,2.71-1.16,3.99c.06,1.29-.55,3-1.85,5.14l-.74,2.27c-.29.94-.73,1.96-1.33,3.06-.59,1.1-.95,2.66-1.05,4.68l-1.73,6.67c-1.22,4.55-2.42,6.89-3.59,7.01.05,3.37.02,5.33-.11,5.88s-.58,1.15-1.39,1.77c-.8.63-1.32,1.51-1.55,2.66s-.58,2.03-1.03,2.66l-1.08,5.08c-1.17.89-1.84,2.2-2.03,3.88-1.23.65-1.77,1.96-1.63,3.92-.25.41-.48,1.25-.68,2.51l-3.23,5.35c-1.82,2.1-2.56,4.17-2.24,6.22.33,2.04-.49,3.31-2.44,3.79-1.39.35-3.58.24-6.58-.32l-.25.06c.04,1.21-.22,2.61-.77,4.23l1.31,3.19c.1.41.09,3.15-.05,8.21.96,1.06,1.49,1.84,1.62,2.34l.43,2.76,1.44,3.16c1.08,2.59,2.39,3.7,3.94,3.32l3.06-.24c.16-.04,1.03-.91,2.6-2.59l3.92-3.57c.16-.04.27.02.31.19.9.13,1.59.13,2.08,0,.81-.2,1.07-.96.74-2.27l-.4-1.59c.29-.94.76-1.57,1.42-1.91.65-.34,1.2-.86,1.62-1.57s.81-1.11,1.14-1.19l1.23-.31c1.23-.31,1.48-1.88.77-4.74.29-.25.61-.67.98-1.29l1.46-.37c.65-.16,1.17-1.14,1.55-2.92.38-1.78.69-2.88.94-3.29,1.43-.52,2.39-1.03,2.88-1.49,1.44-5.38,2.85-8.25,4.24-8.59l.73-.18c1.06-1.65,1.53-3,1.4-4.06-.13-1.05.11-1.82.72-2.33.61-.49,1.15-1.07,1.59-1.69.45-.63.75-.97.92-1.01,1.23-.31,1.95,0,2.17.89l.49,3.52,1.77,3.46c.08.33-.11,1.05-.57,2.16-.46,1.11-.54,2.24-.27,3.39.58,2.37.49,3.74-.29,4.11-.77.37-1.32,1.09-1.61,2.16-.3,1.07-.96,2.15-2,3.23-1.03,1.08-1.69,2.43-1.98,4.07l-1.96,1.01-1.04,1.04c-.36,2.78-1.01,4.58-1.97,5.43-.96.84-1.9,2.9-2.83,6.17-.25.06-.35.18-.31.34l-2.02.24c-.42,1.49-.95,2.44-1.63,2.87-.67.43-1.17,1.05-1.48,1.86s-1.05,1.62-2.2,2.43c-1.15.8-1.8,1.57-1.96,2.31-.17.73-.56,1.23-1.2,1.46-.63.25-1.17.7-1.61,1.38-.44.67-.86,1.06-1.27,1.16-.17.04-.75.1-1.78.18l-.49.12c-1.15,1.33-2.17,2.1-3.07,2.33-1.06.27-1.8.62-2.21,1.07-.57-.21-1.39-.26-2.44-.18-1.06.09-2.33-.03-3.79-.36-1.31.67-2.13,1.05-2.45,1.13-1.39.35-3.48-.58-6.29-2.8-2.8-2.21-4.52-4.62-5.18-7.24-.02-.08-.65-.59-1.88-1.55-1.24-.95-2.02-2.12-2.37-3.51l-.31-1.23-.12-1.53-.57-2.33.06-.79c1.19-.47,1.76-.78,1.71-.95l-2.14-1.81h.13ZM212.85,179.43l2.21-2.11c0-1.39.67-3.23,2.02-5.5,1.34-2.29,2.38-3.51,3.12-3.7l.98-.25c-.14-.57-.16-1.18-.06-1.81s.03-1.44-.21-2.42c-.12-.49.64-2.11,2.31-4.87l.44-2.44c.21-2.31,1.61-4.51,4.21-6.64.55-2.65,1.12-4.05,1.69-4.2l.92-.49c.02-1.31.41-2.57,1.14-3.79l.31-.86-.49-1.96c-.04-.17.35-.97,1.15-2.43.81-1.46,1.34-2.76,1.57-3.9.24-1.14.71-2.11,1.43-2.89s1.06-1.95,1.02-3.5l1.9-.73c-.27-1.06-.36-1.77-.27-2.15l-.06-1.29c.17-1.08.96-4.01,2.38-8.79l.84-5.02c-.12-.49.08-1.17.6-2.04.52-.86.62-1.95.3-3.27l-.02-4.29c-.47-1.88-1.03-2.74-1.68-2.57-.67.77-1.34,1.37-1.96,1.79-.63.42-.94,2.06-.93,4.91-2.31,1.18-3.43,2.69-3.37,4.54s-.56,3.58-1.89,5.22l-.49,1.68c.06.94-.49,2.07-1.63,3.4-1.15,1.33-2.04,3.33-2.67,6-2.69,6.65-4.19,10.23-4.49,10.74l-.86,1.77-1.9.21c.65,1.23,1,1.92,1.04,2.09.12.49,0,1.02-.39,1.59-.38.57-.61,1.22-.69,1.93-.08.71-.39,1.59-.91,2.63s-.85,2.59-.99,4.67c-.14,2.07-.41,3.34-.82,3.78l-1.78.18c-.9.92-1.27,1.7-1.11,2.36l.79,1.62c.08.33-.05.77-.39,1.34s-.55,1.54-.63,2.95c-.09,1.41-.61,3.64-1.59,6.7-.98,3.06-1.56,6.2-1.76,9.41s-.65,5.34-1.35,6.38c.21.13.47.15.79.06,1.06-.27,1.81-1.62,2.25-4.07"/>
  <path class="st1" d="M343.1,178.89l1.53-2.2c1.22-.31,1.82-1.04,1.79-2.2-.03-1.17.63-2.26,1.97-3.29,1.35-1.03,2.43-2.7,3.23-5.03s1.9-3.66,3.29-4c.48-.12,1.16.15,2.01.8.85.66,1.35,1.23,1.46,1.72.66,2.69.54,5.68-.39,8.94l.37,3.55-.47,1.8c-1.06.96-1.68,1.85-1.87,2.67s-.92,1.96-2.21,3.4l-.8,2.02c-1.65,1.02-2.63,2.26-2.92,3.71-.29,1.46-.96,2.41-2.03,2.84-1.06.44-2.07,1.55-3.01,3.35-.71.61-1.6,1.23-2.66,1.83l.06,1.29c-.61,1.02-1.74,1.99-3.38,2.92-1.63.92-2.82,1.72-3.57,2.38-.74.66-1.29,1.03-1.6,1.12-1.55.39-3.06.44-4.52.15-1.46-.29-2.9-.35-4.34-.16-.61-.37-1.03-.83-1.26-1.38-.23-.55-.82-1.21-1.79-1.96-.97-.76-1.65-1.95-2.06-3.59l-.09-2.45c-.08-.33-.39-.68-.92-1.07-.53-.39-.83-.74-.92-1.07-.08-.33-.06-.59.06-.8.12-.2.15-.47.06-.79-.1-.41-.3-.84-.57-1.29-.29-.45-.47-.84-.54-1.17l-.75-6.19c-.12-.49-.35-.69-.67-.61s-.82.63-1.47,1.66-1.55,1.68-2.7,1.97c-.53.65-.81,1.8-.83,3.46-.46.98-1.09,1.92-1.9,2.81l-.31.85c-.02.61-.51,1.24-1.48,1.87s-1.59,1.29-1.86,1.96l-.92,1.52-2.39.34c-.12.21-.4,1.03-.82,2.47-.43,1.46-1.1,2.72-2.05,3.82l-7.43,9.91c-.82.9-2.05,2.07-3.68,3.51l-.55.92c-5.46,5.95-9.54,9.26-12.24,9.93-2.21.54-4.93.57-8.18.08-3.25-.49-5.21-1.57-5.87-3.23l-2.47-4.72c-1.02-.96-1.78-2.46-2.29-4.5-.25-.98-.33-1.65-.24-2.02l-.18-.73-1.25-3.98c-.25-.98.42-1.66,1.97-2.05l-1.07-3.25c-.08-.33.32-1.79,1.19-4.39.87-2.6,1.51-4.13,1.92-4.57l.83-1.9c-.33-.96,0-2.15.94-3.55.95-1.41,1.65-2.77,2.11-4.1s1.53-2.94,3.23-4.83l2.77-4.59c2.16-3.57,4.69-6.63,7.62-9.18.46-.29,1.25-1.35,2.4-3.2,1.15-1.84,2.6-3.36,4.36-4.52,1.75-1.17,3.41-2.51,4.99-4.04,1.57-1.51,2.9-2.41,3.97-2.67l.98-.25c.33-.08,2.24-1.63,5.74-4.67l.74-.18c.33-.08,1.19.05,2.57.41l.25-.06,1.72-1.46c.29-.24.67-.43,1.17-.54,5.07-1.26,8.73,1.56,10.96,8.47.52,1.44,1.12,2.07,1.77,1.9.81-.2,1.61-1.98,2.39-5.34.77-3.36,3.61-5.64,8.52-6.86,3.51-.87,5.83.94,6.94,5.43,1.32,5.32.19,10.93-3.38,16.84-.17.73-.23,1.53-.19,2.39l-.47,5.45.06.25c.12.49-.06,1.25-.54,2.28-.48,1.03-.64,1.87-.48,2.52l1,3,.36,3.55c.39,1.55.92,2.5,1.61,2.85,2.44-1.3,4.07-2.85,4.88-4.65.81-1.8,1.44-2.85,1.88-3.14l1.1-.79c.43-1.41,1.03-2.64,1.81-3.7M302.4,188.98c-.12-1.88.54-3.49,1.99-4.85,1.45-1.36,2.21-2.56,2.29-3.62,1.27-1.52,2.99-4.13,5.16-7.78,2.17-3.66,3.18-5.82,3.02-6.47-.06-.25-.26-.33-.58-.25l-.25.06-.83.85-2.27.3-2.27.82-1.93-.44-1.53.63-2.57.12c-1.31.33-2.37.87-3.18,1.63-.81.76-2.46,1.8-4.96,3.12-2.49,1.32-4.6,3.03-6.33,5.15s-3.09,3.3-4.07,3.54c-.27,1.37-1.75,3.6-4.45,6.7-1.8,1.14-2.71,2.88-2.74,5.24-1.7,2.25-2.51,3.48-2.45,3.73l-.35,2.3c-.51.73-1.22,1.41-2.1,2.02-.89.61-1.25,1.61-1.08,3s-.08,2.75-.74,4.09-.92,2.33-.75,2.99c.99,4,2.27,5.81,3.82,5.42.65-.16,1.92-.93,3.79-2.31s2.93-2.27,3.18-2.67.82-.89,1.71-1.46l2.03-1.8c.25-.41.56-.7.95-.89.39-.18.73-.54,1.03-1.1.3-.55.91-1.23,1.84-2.02.93-.79,1.57-1.71,1.92-2.75,1.19-1.16,3.12-2.99,5.8-5.47l2.09-2.6c1.59-1.26,2.52-2.23,2.79-2.9.27-.67.94-1.45,2.03-2.33"/>
  <path class="st1" d="M467.19,156.2l.49-.12,1.35.19c.17-.04.31-.16.43-.37-.35-1.39.02-2.74,1.09-4.04.02-1.65.65-3.07,1.88-4.24s3.17-3.08,5.82-5.73l2.41-3.45,1.29-1.1.68-1.46c.63-1.29,1.37-2.03,2.19-2.24,1.23-.31,1.95,0,2.18.89l-.49,2.72,1.49,3.92c.37,1.47.18,2.91-.56,4.31s-1.9,3.46-3.48,6.2l-4.62,8.18-2.89,2.53c-.7.69-1.29,1.45-1.78,2.27l-3.79,5.24c.29,1.15.13,2.1-.47,2.85l-1.97.49-.86.73c-.19,1.69-1.49,3.62-3.91,5.78l-1.42,1.65c-.46.63-.92,1.01-1.42,1.13l-3.56.37-2.21,1.07c-.65.16-1.61.06-2.88-.33-1.27-.38-2.51-.61-3.75-.69-1.24-.09-3.06-1.24-5.48-3.45-2.42-2.22-3.81-3.71-4.18-4.49-.08-.33-.41-.83-.96-1.51-.56-.68-.86-1.11-.9-1.28s.13-1.07.49-2.72l-.06-.25c-.06-.25-.43-.76-1.1-1.54s-1.17-1.83-1.49-3.14c-.18-.73-.66-1.61-1.44-2.63.49-.81.69-1.39.61-1.71-.08-.33-.32-.76-.71-1.32s-.63-.99-.71-1.32l-.75-6.19-1.25-2.94-.48-3c-.43-1.71-1.38-2.4-2.84-2.03-.65.16-1.36.81-2.11,1.95l-.79.46c-1.94,1.6-3.27,2.87-3.99,3.78-.72.92-1.57,1.49-2.55,1.74-.37.61-1.19,1.3-2.47,2.05l-.79.98c-.25.41-.77,1.06-1.59,1.96.06.25-1.13,1.99-3.56,5.24-2.43,3.25-4.6,6.28-6.49,9.1-1.9,2.81-3.37,4.45-4.41,4.93s-1.34,1.65-.87,3.53c.08.33-.48,1.16-1.71,2.5-.16.04-.79,1.15-1.89,3.34-1.54-.65-2.4-.97-2.56-.92-1.07.27-1.51,1.8-1.34,4.62-.23,1.19-1.38,2.16-3.44,2.94-.14.12-.28.81-.41,2.05l-.37.61-1.23.31c-.17.04-.62.65-1.37,1.83-.75,1.19-1.46,1.99-2.14,2.42-.51,2.46-1.15,3.79-1.88,3.98-.33.08-.84.04-1.53-.14-.69-.17-1.52-.28-2.48-.3s-2.21-.77-3.75-2.26c-1.53-1.48-2.45-2.84-2.76-4.06-2.25-9.07-1.71-14.45,1.59-16.13l.12-.55-.24-.98c-.27-1.06.02-1.93.85-2.61s1.56-1.82,2.22-3.4c.64-1.59,1.11-2.5,1.4-2.75l1.59-.4c.33-.08.28-.98-.15-2.69-.12-.49-.03-.99.28-1.5.31-.5.41-1.16.3-1.96-.11-.79.17-2.21.83-4.24.67-2.03.96-3.21.88-3.53l-.37-.43c-1.57,2.39-2.79,3.77-3.65,4.16s-1.79,1.87-2.8,4.46l-2.05.12c-2.81,3.39-4.58,5.34-5.32,5.87-.74.53-1.41,1.69-2.01,3.49.12.49-.09.89-.62,1.2-.53.31-1.44,1.23-2.71,2.75l-.74.18c-2.05.5-3.43-.71-4.17-3.65l.84-7.62c.19-2.39,1.46-4.67,3.82-6.87,2.36-2.19,4.31-4.21,5.84-6.07,1.53-1.85,3.23-3.06,5.09-3.6l.55-1.44c2.51-1.75,3.97-3.89,4.38-6.42.42-2.53,1.47-4.01,3.19-4.43,4.49-1.11,8.33-.31,11.52,2.42s5.03,5.07,5.51,7.03l1.07,3.25c.29,1.15.44,2.8.46,4.96-.61,1.71-.83,2.94-.65,3.67.16.65.65.88,1.46.67.48-.12,1.06-.63,1.7-1.52.64-.9,1.41-1.76,2.29-2.58.88-.82,1.35-1.46,1.42-1.91.33-2.17,1.43-3.86,3.29-5.11,1.86-1.24,2.97-2.17,3.35-2.78l.98-1.29.52-2.08c1.96-1.52,3.21-2.79,3.74-3.79s1.39-1.77,2.54-2.33c1.17-.54,2.38-1.62,3.62-3.24l1.71-.94,1.47-1.41c.12-.2.56-.52,1.32-.98.75-.45,1.85-1.18,3.3-2.19,1.44-1.01,2.44-1.58,3.02-1.72,4.17-1.03,7.86-.17,11.11,2.58,3.24,2.75,5.12,5.16,5.62,7.2l.3,2.27,1.31,3.19.12.49.69,6.99.82,2.27c.95,3.84.79,6.7-.48,8.57-.37.27-.48.72-.31,1.38l.28,1.1,3.73,4.54c1.18,1.61,1.98,2.38,2.39,2.27l3.66-2.08c1.06-.6,1.79-1.7,2.19-3.28.57-.49,1.47-1.75,2.71-3.79.17-1.43.78-2.28,1.85-2.54"/>
  <path class="st1" d="M503.81,55.15l1.59-.91.92-1.52.25-.06,1.23.22.25-.06c1.96-.49,3.6-1.31,4.94-2.45,1.33-1.15,2.47-2.02,3.42-2.6s1.53-.99,1.74-1.21c.21-.23.4-.36.55-.4l2.04-.25c.65-.16,1.24-1.54,1.77-4.15.52-2.6,1.35-4.6,2.47-6.01s2.02-3.75,2.67-7.04c.23-.49.44-1.22.63-2.17.2-.96.42-1.47.66-1.53,1.23-.31,2.01-1.33,2.37-3.06,1.74-3.46,3.39-5.39,4.94-5.78,2.04-.5,3.96,1.1,5.75,4.82l2.38,4.36c.02.08-.04.72-.17,1.93-.14,1.21-.05,2.36.27,3.44s.46,1.84.43,2.24,0,.84.14,1.34c.16.65.94.81,2.33.47.49-.12,1.31-.67,2.45-1.65l.67-.43c.94.29,1.69.37,2.27.22.16-.04,1.23-.74,3.19-2.09,1.96-1.36,3.22-2.14,3.77-2.37.55-.22,1.45-.79,2.7-1.71l1.47-.37,1.07.13c.33-.08.91-.59,1.76-1.54.85-.95,2.68-1.86,5.5-2.73l1.53-1.16.49-.12c2.69-.67,4.34.18,4.93,2.55.12.49-.06,1.45-.52,2.86-.48,1.42-.76,2.97-.87,4.64l-3.88,8.5c-1.28,2.92-2.85,4.61-4.73,5.08-.33.08-1.62-.77-3.88-2.55-.04-.16-.23-.21-.55-.13-.82.21-1.63.58-2.45,1.13-.82.55-1.51.89-2.09,1.04-.25.06-2.26,1.21-6.04,3.45l-2.82,1.22c-.33.08-1.06.44-2.21,1.07l-5.95,2.78c-1.86,1.59-3.05,4.01-3.54,7.26.04.17-.28.63-.95,1.41l-3.03,11.42c-1.68.94-2.6,2.3-2.77,4.07l-.31.86c-.86.39-1.55,1.1-2.08,2.14-.52,1.04-1.05,1.89-1.58,2.54l-1.39,3.86c-.61,1.37-1.21,2.84-1.77,4.4-.56,1.57-.87,3.17-.9,4.78-.04,1.61-.15,2.57-.33,2.88-.19.31-.2.79-.03,1.45l-.13,1.07c-.74,1.23-.96,2.44-.65,3.67l.98,1.84c-.18,4.21-.23,6.43-.17,6.68.04.17.24.59.58,1.29l.18.73c.45,1.8.35,4.21-.3,7.23l.73,1.9.63,5.7c.18.73.76,2.02,1.74,3.86-.25.41-.35.69-.31.86.56,2.29,2.4,4.5,5.49,6.64,3.1,2.14,5.36,6.11,6.8,11.91.12.49.18,1.24.16,2.24,0,1,.08,2.06.27,3.19s-.18,2.37-1.1,3.72-1.79,2.14-2.61,2.34c-4.34,1.08-8.35-1.27-12.04-7.04-3.69-5.76-5.75-9.54-6.2-11.34l-.94-4.84-1.35-2.27-1.94-10.97-1.13-2.45.21-11.24-.94-3.8c-.04-.16.37-.96,1.23-2.39-.04-.17-.23-.21-.55-.13-.49.12-1.03.77-1.6,1.96-.57,1.19-1.37,2.38-2.38,3.58l-.55,1.96c-.21-.12-.57-.21-1.11-.25-.37.27-1.25,2.52-2.62,6.76-1.66.67-2.76,1.99-3.33,3.95-.55,1.96-1.69,3.15-3.41,3.58l-.44.37c.26,2.45-.59,3.92-2.55,4.4l-.43.37c-.54,3.09-1.47,4.74-2.8,4.99-.21,2.65-1.8,4.83-4.77,6.51-.25,1.11-.78,2.02-1.6,2.74-.82.72-1.39,1.34-1.69,1.85-.31.51-.62.8-.95.89-1.06.27-1.88-.75-2.44-3.04-.16-.65-.07-1.44.27-2.35.35-.91.48-1.52.39-1.85-.04-.16-.57-.55-1.59-1.17-.62-2.53-.37-4.29.78-5.27s1.89-2.16,2.25-3.54c.17-1.08.81-1.98,1.94-2.69,1.13-.71,1.61-1.4,1.45-2.05-.14-.57.64-1.98,2.35-4.22,1.7-2.25,2.89-4.12,3.55-5.63.66-1.5,1.33-2.35,1.99-2.5l.37-.61c-.35-2.08.18-3.3,1.57-3.64l1.04-1.04v-1.04l.61-.67.98-.24.49-.64c-.35-2.08.23-3.91,1.69-5.49,1.47-1.58,3.89-5.58,7.25-12.01,3.36-6.42,5.14-10.44,5.34-12.06.21-1.61.76-3.85,1.65-6.72.9-2.87,1.15-5.42.77-7.67-.25-.29-.57-.55-.98-.8l-4.63,3.88c-.06-.25-.97-.41-2.72-.49-1.04,1.04-1.76,2-2.15,2.87-.39.88-.75,1.36-1.08,1.44l-1.77.18-5.25,1.95c-4.72,1.6-8.12,3.48-10.18,5.64l-4.66,2.72-1.1.28c-.65.16-1.53.81-2.63,1.95l-2.88.46c-2.27,2.04-4.02,3.21-5.25,3.51-.16.04-.67.08-1.53.12l-11.65,6.53c-.9.57-2.69,2.79-5.37,6.67l-.92.49c-.81.2-2.01-.48-3.56-2.04-1.55-1.56-2.52-3.09-2.88-4.55-2-8.09,3.78-14.51,17.34-19.26l4.54-3.21.25-.06,1.46.16.49-.12c.48-.12,1.19-.62,2.1-1.49.91-.87,3.1-2.22,6.54-4.03l4.69-2.59,1.65-.15c.81-.21,1.65-.76,2.51-1.66.86-.91,2.3-1.76,4.31-2.56s3.39-1.46,4.13-2l1.84-.98c.33-.08.93-.53,1.81-1.36.88-.82,2.14-1.45,3.77-1.85.25-.06.9-.05,1.96.03"/>
  <path class="st1" d="M388.89,240.92c1.05-.32,1.63,0,1.76.92.16,1.15-1.16,3.03-3.95,5.62-2.8,2.59-5.61,4.32-8.45,5.17-2.5.75-4.91.7-7.23-.16-2.32-.86-3.67-2.71-4.08-5.56-.41-2.9.24-6.45,1.94-10.66s4.03-7.91,6.97-11.12c2.94-3.21,5.96-5.28,9.06-6.2,1.84-.55,3.39-.49,4.63.18,1.24.67,1.96,1.67,2.15,3.02.21,1.46.23,2.53.07,3.24s-.61,1.41-1.37,2.1-1.38,1.12-1.89,1.27c-.52.16-1,.13-1.44-.1-.44-.22-.69-.62-.77-1.2-.06-.4-.02-1.02.11-1.85.11-.83.13-1.5.06-2.01-.12-.86-.5-1.2-1.15-1.01-1.98.59-4.07,2.23-6.26,4.89-2.2,2.66-3.97,5.69-5.32,9.08-1.36,3.39-1.87,6.18-1.56,8.36.21,1.46.84,2.54,1.9,3.27s2.48.82,4.26.29c1.05-.32,2.33-.97,3.84-1.96s2.89-2.13,4.12-3.4c1.24-1.3,2.11-2.02,2.6-2.17h0Z"/>
  <path class="st1" d="M410.14,234.78c-3.01,5.43-6.2,8.65-9.57,9.66-1.24.38-2.37.25-3.39-.38s-1.62-1.62-1.82-3c-.47-3.32.66-7.33,3.39-12.07,2.72-4.72,5.73-7.58,9.04-8.57,1.68-.5,2.89-.06,3.62,1.32,1.58-.48,2.45-.16,2.6.94.07.52.06,1.52-.05,2.99-.19,2.74-.18,4.89.04,6.42.23,1.6.5,2.69.83,3.28.34.57.56.95.7,1.12.14.17.49.28,1.08.34.58.07.9.33.97.75.09.63-.19,1.28-.84,1.91s-1.36,1.07-2.13,1.31c-2.58.77-4.08-1.24-4.48-6.03h0ZM407.44,224.72c-1.39.42-3,2.36-4.83,5.82-1.83,3.46-2.6,6.18-2.34,8.13.15,1.03.45,1.46.92,1.33,1.62-.49,3.43-2.4,5.44-5.73,2.01-3.34,2.87-5.99,2.59-7.95-.09-.62-.32-1.08-.67-1.36-.37-.28-.73-.36-1.12-.24h0Z"/>
  <path class="st1" d="M427.89,220.12c-.12.04-.32,1.55-.57,4.53-.26,2.99-.35,4.77-.27,5.36.15,1.03.37,1.71.66,2.04.3.34.72.42,1.28.26.77-.23,1.49-.57,2.17-1.03.67-.46,1.53-1.29,2.56-2.48.64-.75,1.21-1.21,1.7-1.36.4-.12.73-.11,1,.02.27.14.43.34.47.61.16,1.1-.64,2.64-2.41,4.62s-3.72,3.3-5.9,3.95c-1.81.54-3.27.48-4.37-.22s-1.77-1.95-2.03-3.77c-.24-1.69-.02-5.28.66-10.75-.87.36-1.47.58-1.82.68l-.44.13c-.63.19-1.31.2-2.01.02s-1.12-.68-1.24-1.5c-.15-1.05.44-1.77,1.74-2.17l4.39-1.47c.37-1.68.7-3.86,1-6.5.17-1.64.94-2.67,2.3-3.08.76-.23,1.38-.2,1.86.1.48.29.76.69.83,1.21.03.2-.29,2.31-.94,6.32,4.33-1.66,6.7-2.55,7.13-2.68.73-.22,1.23-.27,1.48-.14s.44.47.5,1.01c.16,1.12-.78,2.14-2.82,3.06l-6.97,3.23h.03Z"/>
  <path class="st1" d="M461.33,192.84c1.48-.45,2.34.07,2.54,1.54.1.67.09,1.44,0,2.28-.1.84-.39,2.95-.88,6.31-.36,2.44-.52,5.04-.5,7.79s.14,4.87.35,6.36c.23,1.59.62,3.44,1.19,5.55.15.56.24.93.26,1.08.11.75-.11,1.48-.63,2.21-.53.72-1.16,1.19-1.87,1.41-.98.3-1.72.08-2.24-.64s-.92-2.1-1.21-4.14c-.61-4.39-.77-9.74-.48-16.03s.73-10.1,1.31-11.39c.57-1.3,1.3-2.07,2.18-2.34h0Z"/>
  <path class="st1" d="M469.97,210.38v.02c.12-2.41.16-3.78.12-4.11-.13-.93-.02-1.77.35-2.53.36-.76.94-1.26,1.73-1.49.94-.28,1.69-.3,2.28-.06.58.25.9.61.97,1.12.07.5-.04,1.61-.33,3.33l-.07.46c-.42,2.64-.59,4.75-.53,6.32s.16,2.83.3,3.77c.11.76.4,1.74.86,2.93.07.22.12.4.14.54.04.29-.21.76-.73,1.44-.53.67-1.14,1.11-1.83,1.31-1.81.54-2.9-.44-3.26-2.94-.3-2.13-.34-4.82-.1-8.07.04-.71.08-1.4.1-2.03h0ZM477.77,191.96c.13.89-.21,1.8-.99,2.73-.78.93-1.5,1.49-2.15,1.69-.82.25-1.6.16-2.33-.28-.73-.44-1.14-.96-1.23-1.59-.13-.9.09-1.72.64-2.47.55-.74,1.43-1.3,2.6-1.65.92-.28,1.7-.26,2.35.07s1.01.82,1.1,1.49h0Z"/>
  <path class="st1" d="M488.67,201.88c-.12.04-.32,1.55-.57,4.53-.26,2.99-.35,4.77-.27,5.36.15,1.03.37,1.7.66,2.04.3.34.72.42,1.28.26.77-.23,1.49-.57,2.17-1.03.67-.46,1.52-1.29,2.56-2.48.64-.75,1.21-1.21,1.7-1.36.4-.12.73-.11,1,.02.27.14.43.34.47.61.16,1.1-.64,2.64-2.41,4.62s-3.72,3.3-5.9,3.95c-1.81.54-3.28.48-4.37-.22-1.1-.69-1.77-1.95-2.03-3.77-.24-1.69-.02-5.28.66-10.75-.87.36-1.47.58-1.82.68l-.44.13c-.63.19-1.31.2-2.01.02s-1.12-.68-1.24-1.5c-.15-1.05.44-1.77,1.74-2.17l4.39-1.47c.37-1.68.7-3.86,1-6.5.17-1.64.94-2.67,2.3-3.08.75-.23,1.38-.2,1.86.1.48.29.76.69.83,1.21.03.2-.29,2.31-.94,6.32,4.33-1.66,6.7-2.55,7.13-2.68.73-.22,1.23-.27,1.48-.14s.43.47.5,1.01c.16,1.12-.78,2.14-2.82,3.06l-6.97,3.23h.03Z"/>
  <path class="st1" d="M508.41,195.96c-.13.04-.32,1.55-.57,4.53-.26,2.99-.35,4.77-.27,5.36.15,1.03.37,1.7.66,2.04.3.34.72.42,1.28.26.77-.23,1.49-.57,2.17-1.03.67-.46,1.52-1.29,2.56-2.48.64-.75,1.21-1.21,1.7-1.36.4-.12.73-.11,1,.02.27.14.43.34.47.61.16,1.1-.64,2.64-2.41,4.62s-3.72,3.3-5.9,3.95c-1.81.54-3.28.48-4.37-.22-1.1-.69-1.77-1.95-2.03-3.77-.24-1.69-.02-5.28.66-10.75-.87.36-1.47.57-1.82.68l-.44.13c-.63.19-1.31.2-2.01.02s-1.12-.68-1.24-1.5c-.15-1.05.44-1.77,1.74-2.17l4.39-1.47c.37-1.68.7-3.85,1-6.5.17-1.64.94-2.67,2.3-3.08.75-.23,1.38-.2,1.86.1.48.29.76.69.83,1.21.03.2-.29,2.31-.94,6.32,4.33-1.66,6.7-2.55,7.13-2.68.73-.22,1.23-.27,1.48-.14s.44.47.5,1.01c.16,1.12-.78,2.14-2.82,3.06l-6.97,3.23h.03Z"/>
  <path class="st1" d="M539.43,195.81c.19,1.31-.8,3.22-2.96,5.75s-4.74,4.26-7.77,5.16c-2.33.7-4.25.58-5.77-.36-1.52-.93-2.45-2.58-2.78-4.97-.49-3.5.41-7.2,2.7-11.09,2.3-3.88,4.99-6.3,8.09-7.22,1.54-.47,2.84-.39,3.9.22s1.67,1.52,1.85,2.75c.31,2.18-.55,4.59-2.57,7.26s-4.77,4.91-8.26,6.73c-.4.21-.57.49-.52.86.09.6.46,1.09,1.12,1.46s1.48.41,2.45.11c2.76-.83,5.33-2.95,7.69-6.35.46-.65.93-1.06,1.43-1.21.82-.25,1.3.05,1.42.89h0ZM525.11,196.64c2.12-1.05,3.92-2.47,5.39-4.26,1.47-1.79,2.14-3.21,1.99-4.26-.06-.42-.24-.72-.52-.93-.3-.21-.64-.25-1.04-.13-1.2.36-2.42,1.56-3.64,3.6-1.24,2.04-1.96,4.03-2.17,5.98h0Z"/>
  <path class="st1" d="M547.61,190.38l.27-.7c1.24-3.54,2.68-6.54,4.34-9.02s3.4-3.98,5.23-4.53c1.41-.43,2.59-.42,3.58.02s1.54,1.14,1.68,2.1c.09.6,0,1.16-.24,1.68s-.63.86-1.17,1.03c-.85.26-1.67.17-2.46-.26-.55-.27-.97-.36-1.27-.27-1.03.31-2.55,2.29-4.56,5.93-2.01,3.64-3.01,7.36-2.99,11.16,0,1.1-.24,1.93-.7,2.51-.47.57-1.14,1-2.04,1.27-.95.29-1.69,0-2.23-.87-.53-.86-.96-2.41-1.28-4.63-.13-.91-.28-2.16-.44-3.72-.15-1.48-.25-3.32-.28-5.51,0-.57-.02-1.02-.04-1.34-.05-1.27-.03-2.15.07-2.65.1-.5.41-1.04.92-1.61.52-.57,1.13-.97,1.83-1.18.74-.23,1.34-.2,1.77.08s.69.64.75,1.1c.08.58-.06,1.9-.42,3.94-.13.7-.21,1.52-.24,2.45l-.11,3.05v-.02Z"/>
  <path class="st3" d="M1183.01,191.87c.92,6.6,6.17,11.74,12.77,12.62,3.6.48,6.64.72,9.15.72h4.57c6.08,0,10.65-2.18,13.69-6.73,2.6-4.34,3.91-10.21,3.91-17.82V53.95h-9.18c-7.18,0-12.99,5.82-12.99,12.99v107.61c0,4.34-.21,7.39-.65,8.91-.86,2.18-2.6,3.04-5.22,3.04-3.99,0-9.07-.73-15.43-2.2-.83-.19-1.61.5-1.5,1.34l.86,6.21v.02Z"/>
  <path class="st3" d="M1176.6,207.9c6.14-32.51,8.04-49.82,9.86-68.98,1.7-17.87,3.25-35.64,3.25-53.46l-7.16-.3c-7.26-.31-13.39,5.31-13.73,12.57-.65,13.92-1.8,27.61-3.45,41.19-2.01,16.74-3.13,27.21-7.6,46.66-2.11,9.17,3.46,18.36,12.58,20.71l6.25,1.6h0Z"/>
  <path class="st3" d="M682.3,88.31l-4.44,2.12s-.07.08-.05.13c3.67,8.04,7.61,15.9,11.78,23.58,3.72,6.87,12.13,9.67,19.18,6.3l7.15-3.41s.07-.09.04-.14c-4.12-6.95-8.01-14-11.63-21.11-4.1-8.06-13.88-11.37-22.04-7.48Z"/>
  <path class="st3" d="M675.63,133.02l5.52-2.53s.07-.09.04-.14c-6.19-10.06-11.94-20.12-17.09-30.18-3.41-6.65-11.42-9.47-18.17-6.25l-7.2,3.44s-.07.08-.05.13c4.36,9.43,9,18.68,13.92,27.74,4.47,8.24,14.5,11.67,23.02,7.77h0Z"/>
  <path class="st3" d="M756.08,229.68l5.52-2.53s.08-.09.04-.14c-6.19-10.06-19.27-33.95-24.42-44.01-3.41-6.65-11.42-9.47-18.17-6.25l-7.2,3.44s-.07.08-.05.13c4.36,9.43,16.34,32.51,21.25,41.57,4.47,8.24,14.5,11.67,23.02,7.77h0Z"/>
  <path class="st3" d="M735.21,92.51c-5.7,11.41-12.08,23.16-19.14,35.25-.03.05,0,.11.03.14l4.33,2.7c7.45,4.63,17.3,2.33,21.85-5.17,6.95-11.45,13.47-23.05,19.53-34.87.02-.05,0-.11-.04-.13l-7.59-4.03c-6.93-3.68-15.48-.89-18.99,6.13v-.02Z"/>
  <path class="st3" d="M655.15,187.57c-5.7,11.41-20.13,37.73-27.2,49.83-.03.05,0,.11.03.14l4.33,2.7c7.45,4.63,17.3,2.33,21.85-5.17,6.95-11.45,21.52-37.63,27.59-49.45.02-.05,0-.11-.04-.13l-7.59-4.03c-6.93-3.68-15.48-.89-18.99,6.13v-.02Z"/>
  <path class="st3" d="M780.9,120.6c10.11-8.93,18.7-17.12,25.74-24.49,8.45-9.1,16.05-18.85,22.98-29.26.03-.04.02-.11-.03-.14l-3.09-2.22c-7.85-5.65-18.85-4.23-24.79,3.42-3.51,4.51-7.15,8.86-10.95,12.99-9.11,10.2-21.68,21.69-37.29,34.27-.05.04-.05.11,0,.15l5.23,4.94c6.19,5.86,15.81,5.98,22.19.35h0Z"/>
  <path class="st3" d="M739.58,149.14h-31.07c-.06,0-.1-.04-.1-.1v-15.89s-.05-.1-.1-.1h-21.97c-.06,0-.1.05-.1.1v15.89c0,.06-.04.1-.1.1h-28.74c-9.88,0-17.88,8-17.88,17.88v3.21h46.62c.06,0,.1.05.1.1v80.64c0,.06.05.1.1.1h21.97c.06,0,.1-.05.1-.1v-80.64s.04-.1.1-.1h44.79c.06,0,.1-.04.1-.1v-7.18c0-7.62-6.19-13.81-13.81-13.81h0Z"/>
  <path class="st3" d="M838.94,185.59l-3.09-2.22c-8.04-5.79-19.11-4.34-25.57,3.19-4.22,4.91-8.62,9.63-13.2,14.09-10.41,10.85-24.72,22.78-42.72,35.78-.05.04-.06.11,0,.15l2.67,2.56c7.67,7.36,19.66,7.85,27.91,1.13,10.88-8.86,20.14-16.85,27.79-24.19,9.54-9.54,18.43-19.51,26.23-30.34.03-.05.02-.11-.02-.14h0Z"/>
  <path class="st3" d="M784.25,178.85c11.07-9.67,20.39-18.56,28.03-26.67,9.54-10.41,18-21.24,25.81-32.73.03-.05.02-.11-.03-.14l-3.79-2.68c-7.61-5.39-18.1-3.78-23.82,3.59-4.43,5.72-9.02,11.23-13.83,16.52-10.41,11.5-24.51,24.29-42.29,38.61-.05.04-.05.11,0,.15l2.99,2.83c7.49,7.09,19.15,7.29,26.92.51h0Z"/>
  <path class="st0" d="M879.86,97.4v78.03h12.61v-84.09h-6.54c-3.35,0-6.06,2.72-6.06,6.06h0Z"/>
  <path class="st3" d="M879.86,175.43v-78.03c0-3.35,2.71-6.06,6.06-6.06h6.54v-18.69c-7.34,0-10.81,0-21.16-.02-7.56,0-13.7,6.11-13.7,13.67l.09,110.46h22.16v-.02h8.71v-21.3h-8.71,0Z"/>
  <path class="st3" d="M926.46,175.43v-78.03c0-3.35-2.71-6.06-6.06-6.06h-6.54v-18.69c3.46,0,10.81,0,21.16-.02,7.56,0,13.7,6.11,13.7,13.67l-.09,110.46h-22.16v-.02h-12.61v-21.3h12.61,0Z"/>
  <path class="st3" d="M628.61,86.85s9.12-23.15,43.89-27.45c54.26-6.73,92.86-12.88,103.3-27.01,0,0-4.82,25.12-19.2,32.31-22.8,11.38-38.67,10.21-70.94,11.78-18.58.9-54.99,4.55-57.03,10.37h0Z"/>
  <path class="st3" d="M828.81,250.75s12.79-21.92,45.79-27.25c42.2-6.82,72.4-3.6,81.53-16.29,0,0-3.64,17.72-16.36,24.26-20.23,10.41-35.41,10.52-57.64,11.81-14.28.83-51.58,2.27-53.32,7.48h0Z"/>
  <path class="st3" d="M1145.37,266.96s9.8-26.43,40.42-40.68c39.15-18.22,66.07-21.4,71.52-35.86,0,0,1.24,17.64-9.34,27.34-16.84,15.43-31.56,19.79-52.81,27.23-13.65,4.78-49.49,16.58-49.78,21.96Z"/>
  <path class="st3" d="M914.07,198.46h0V52.58c0-.08-.07-.15-.15-.15h-8.49c-7.18,0-12.99,5.82-12.99,12.99v163.11s10.52-.86,21.62-3.09v-26.99h0Z"/>
  <path class="st3" d="M1043.08,225.63h-22.01c-.71,0-1.27-.57-1.27-1.27v23.22h35.23c.71,0,1.27-.57,1.27-1.27v-7.45c0-7.3-5.92-13.23-13.23-13.23h0Z"/>
  <path class="st3" d="M972.86,225.63h22.01c.71,0,1.27-.57,1.27-1.27v23.22h-35.23c-.71,0-1.27-.57-1.27-1.27v-7.45c0-7.3,5.92-13.23,13.23-13.23h0Z"/>
  <path class="st3" d="M1019.8,195.77v-103.16c0-.7.57-1.27,1.27-1.27h29.83c.7,0,1.27-.57,1.27-1.27v-6.82c0-7.18-5.82-12.99-12.99-12.99h-65.72c-7.18,0-12.99,5.82-12.99,12.99v6.82c0,.7.57,1.27,1.27,1.27h33.09c.7,0,1.27.57,1.27,1.27v116.91h0v36.78c0,.7.57,1.27,1.27,1.27h21.13c.7,0,1.27-.57,1.27-1.27v-50.53h0Z"/>
  <path class="st0" d="M1097,91.01s-15.66,41.08-39.96,86.97"/>
  <path class="st0" d="M1110.62,231.71h19.21c0-22.74.34-45.85.34-60.41v-31.95c0-3.44-1.67-4.67-4.71-4.67h-14.84v97.02h0Z"/>
  <path class="st3" d="M1143.99,70.58h-56.37c-7.18,0-12.99,5.82-12.99,12.99v6.16c0,.7.57,1.27,1.27,1.27h21.11c-8.47,23.9-17.88,44.66-39.96,86.97l3.55,1.78c8.55,4.27,18.94.92,23.42-7.52,3.53-6.66,4.23-8.47,4.66-9.31v89.77h21.95v.11h23.81c9.29,0,17.39-6.86,17.39-16.41v-101.35c0-8.74-5.72-17.4-16.63-17.4l-4.08.11h-20.47v-1.4c0-.97.19-1.93.56-2.83l1.55-3.72c2.77-6.9,5.18-11.17,7.95-18.78h35.02c.7,0,1.27-.57,1.27-1.27v-6.16c0-7.18-5.82-12.99-12.99-12.99h-.02ZM1125.47,134.69c3.04,0,4.71,1.23,4.71,4.67v31.95c0,14.56-.34,37.68-.34,60.41h-19.21v-97.02h14.84Z"/>
  <path class="st3" d="M1271.69,208.52c-6.85-39.76-13.1-77.64-18.78-113.75-1.17-7.4-8.33-12.28-15.65-10.65l-6.04,1.34c4.78,34.77,16.16,105.59,19.64,125.23,1.07,6.05,2.11,10.9,2.53,15.59l9.62-3.21c6.09-2.03,9.78-8.22,8.69-14.55h0Z"/>
  <path class="st2" d="M514.61,283.04c3.35-26.91,19.53-37.56,43.16-21.49,0,0-5.55,2.18-5.55,2.18.48-2.4,1.08-4.47,1.8-6.73,6.69-21.07,22.49-38,46.19-34.57,13.53,1.87,25.8,8.78,36.75,16.34,0,0-3.36,4.85-3.36,4.85-16.04-10.91-38.88-22.35-56.65-9.63-9.76,7.25-15.29,19.29-17.83,30.97,0,0-1.01,5.45-1.01,5.45l-4.54-3.27c-3.55-3.02-7.38-5.7-11.52-7.35-15.47-6.47-24.5,10.39-27.43,23.24h0Z"/>
</svg>